<?xml version="1.0" standalone="no"?>
<!DOCTYPE svg PUBLIC "-//W3C//DTD SVG 20010904//EN"
 "http://www.w3.org/TR/2001/REC-SVG-20010904/DTD/svg10.dtd">
<svg version="1.0" xmlns="http://www.w3.org/2000/svg"
 width="100%" height="100%" viewBox="0 0 32.000000 32.000000"
 preserveAspectRatio="xMidYMid meet">

<g transform="translate(0.000000,32.000000) scale(0.100000,-0.100000)"
fill="#fff" stroke="none">
<path d="M150 270 c-11 -11 -20 -31 -20 -44 0 -15 -7 -26 -20 -29 -28 -7 -28
-57 0 -57 18 0 20 -7 20 -55 0 -52 1 -55 25 -55 24 0 25 3 25 54 0 49 2 55 23
58 32 4 31 52 -1 56 -30 4 -25 36 6 40 16 3 22 10 22 28 0 20 -5 24 -30 24
-17 0 -39 -9 -50 -20z"/>
</g>
</svg>
