<?xml version="1.0" standalone="no"?>
<!DOCTYPE svg PUBLIC "-//W3C//DTD SVG 20010904//EN"
 "http://www.w3.org/TR/2001/REC-SVG-20010904/DTD/svg10.dtd">
<svg version="1.0" xmlns="http://www.w3.org/2000/svg"
 width="64.000000pt" height="64.000000pt" viewBox="0 0 64.000000 64.000000"
 preserveAspectRatio="xMidYMid meet">

<g transform="translate(0.000000,64.000000) scale(0.100000,-0.100000)"
fill="#000000" stroke="none">
<path d="M275 461 c-65 -16 -115 -69 -115 -122 0 -27 35 -85 56 -93 12 -5 15
-14 10 -36 -7 -35 -1 -37 39 -10 17 11 47 20 69 20 72 0 146 62 146 122 0 33
-34 84 -67 101 -37 19 -100 27 -138 18z m-15 -91 c0 -5 -4 -10 -10 -10 -5 0
-10 -13 -10 -30 0 -16 -4 -30 -10 -30 -5 0 -10 14 -10 30 0 17 -4 30 -10 30
-5 0 -10 5 -10 10 0 6 14 10 30 10 17 0 30 -4 30 -10z m45 -20 c21 -41 19 -46
-20 -46 -19 0 -35 1 -35 3 0 10 30 73 34 73 3 0 12 -13 21 -30z m45 -6 c0 -13
5 -24 10 -24 6 0 10 -4 10 -10 0 -5 -9 -10 -20 -10 -17 0 -20 7 -20 41 0 24 4
38 10 34 6 -3 10 -17 10 -31z m68 29 c13 10 15 8 9 -12 -3 -13 -2 -33 4 -43
11 -20 -1 -24 -19 -6 -9 9 -12 9 -12 0 0 -7 -4 -12 -10 -12 -5 0 -10 19 -10
42 0 32 3 39 12 30 9 -9 15 -9 26 1z"/>
</g>
</svg>
