<?xml version="1.0" standalone="no"?>
<!DOCTYPE svg PUBLIC "-//W3C//DTD SVG 20010904//EN"
 "http://www.w3.org/TR/2001/REC-SVG-20010904/DTD/svg10.dtd">
<svg version="1.0" xmlns="http://www.w3.org/2000/svg"
 width="100%" height="100%" viewBox="0 0 24.000000 24.000000"
 preserveAspectRatio="xMidYMid meet">

<g transform="translate(0.000000,24.000000) scale(0.100000,-0.100000)"
fill="#000000" stroke="none">
<path d="M55 185 c-32 -31 -32 -69 1 -102 21 -21 32 -24 62 -19 29 4 41 1 59
-16 30 -28 43 -15 15 15 -17 18 -20 30 -16 59 5 30 2 41 -19 62 -33 33 -71 33
-102 1z m93 -7 c16 -16 16 -70 0 -86 -16 -16 -70 -16 -86 0 -16 16 -16 70 0
86 7 7 26 12 43 12 17 0 36 -5 43 -12z"/>
</g>
</svg>
