<?xml version="1.0" standalone="no"?>
<!DOCTYPE svg PUBLIC "-//W3C//DTD SVG 20010904//EN"
 "http://www.w3.org/TR/2001/REC-SVG-20010904/DTD/svg10.dtd">
<svg version="1.0" xmlns="http://www.w3.org/2000/svg"
 width="32px" height="32px" viewBox="0 0 32.000000 32.000000"
 preserveAspectRatio="xMidYMid meet">

<g transform="translate(0.000000,32.000000) scale(0.100000,-0.100000)"
fill="#fff" stroke="none">
<path d="M107 257 c-42 -73 -44 -81 -18 -99 17 -12 17 -19 8 -70 -14 -78 -2
-92 72 -85 77 8 85 19 66 92 -9 34 -12 61 -6 64 24 15 14 50 -29 104 -25 31
-47 56 -50 57 -3 0 -23 -29 -43 -63z m86 -7 c35 -45 36 -50 18 -50 -25 0 -27
-20 -7 -58 7 -15 17 -41 20 -58 7 -30 6 -31 -31 -32 -21 -1 -51 -4 -67 -8 -24
-5 -28 -3 -23 9 3 9 9 43 13 76 6 53 4 61 -10 61 -9 0 -16 3 -16 6 0 10 55
104 60 104 3 -1 22 -23 43 -50z m37 -70 c0 -5 -4 -10 -9 -10 -6 0 -13 5 -16
10 -3 6 1 10 9 10 9 0 16 -4 16 -10z m-120 -10 c0 -5 -4 -10 -9 -10 -6 0 -13
5 -16 10 -3 6 1 10 9 10 9 0 16 -4 16 -10z m113 -141 c-16 -16 -113 -25 -113
-11 0 10 28 15 100 20 18 2 21 -1 13 -9z"/>
</g>
</svg>
