<?xml version="1.0" standalone="no"?>
<!DOCTYPE svg PUBLIC "-//W3C//DTD SVG 20010904//EN"
 "http://www.w3.org/TR/2001/REC-SVG-20010904/DTD/svg10.dtd">
<svg version="1.0" xmlns="http://www.w3.org/2000/svg"
 width="100%" height="100%" viewBox="0 0 32.000000 32.000000"
 preserveAspectRatio="xMidYMid meet">

<g transform="translate(0.000000,32.000000) scale(0.100000,-0.100000)"
fill="#fff" stroke="none">
<path d="M16 248 c-24 -33 -22 -149 3 -179 17 -22 25 -23 141 -23 116 0 124 1
141 23 25 30 27 146 3 179 -14 21 -22 22 -144 22 -122 0 -130 -1 -144 -22z
m252 -4 c20 -6 22 -12 22 -84 0 -62 -3 -79 -16 -84 -20 -8 -208 -8 -228 0 -13
5 -16 22 -16 84 0 66 3 79 18 83 26 7 194 8 220 1z"/>
<path d="M130 159 l0 -50 40 23 c22 13 40 25 40 28 0 3 -18 15 -40 27 l-40 21
0 -49z"/>
</g>
</svg>
