<?xml version="1.0" standalone="no"?>
<!DOCTYPE svg PUBLIC "-//W3C//DTD SVG 20010904//EN"
 "http://www.w3.org/TR/2001/REC-SVG-20010904/DTD/svg10.dtd">
<svg version="1.0" xmlns="http://www.w3.org/2000/svg"
 width="100%" height="100%" viewBox="0 0 32.000000 32.000000"
 preserveAspectRatio="xMidYMid meet">

<g transform="translate(0.000000,32.000000) scale(0.100000,-0.100000)"
fill="#fff" stroke="none">
<path d="M44 308 c-34 -16 -44 -51 -44 -148 0 -144 16 -160 160 -160 144 0
160 16 160 160 0 99 -10 132 -47 149 -30 14 -200 13 -229 -1z m234 -30 c16
-16 16 -220 0 -236 -16 -16 -220 -16 -236 0 -16 16 -16 220 0 236 16 16 220
16 236 0z"/>
<path d="M237 263 c-4 -3 -7 -12 -7 -20 0 -15 26 -18 34 -4 7 11 -18 33 -27
24z"/>
<path d="M106 214 c-15 -16 -26 -38 -26 -54 0 -35 44 -80 79 -80 54 0 95 66
70 112 -29 54 -81 63 -123 22z m92 -16 c15 -15 15 -61 0 -76 -15 -15 -61 -15
-76 0 -15 15 -15 61 0 76 7 7 24 12 38 12 14 0 31 -5 38 -12z"/>
</g>
</svg>
