<?xml version="1.0" standalone="no"?>
<!DOCTYPE svg PUBLIC "-//W3C//DTD SVG 20010904//EN"
 "http://www.w3.org/TR/2001/REC-SVG-20010904/DTD/svg10.dtd">
<svg version="1.0" xmlns="http://www.w3.org/2000/svg"
 width="100%" height="100%" viewBox="0 0 512.000000 512.000000"
 preserveAspectRatio="xMidYMid meet">

<g transform="translate(0.000000,512.000000) scale(0.100000,-0.100000)"
fill="#000" stroke="none">
<path d="M577 4442 l-147 -147 285 -285 285 -285 -52 -45 c-183 -154 -363
-356 -494 -552 -75 -111 -234 -417 -236 -454 -2 -25 75 -196 145 -320 114
-202 275 -411 439 -570 683 -659 1648 -882 2548 -588 l135 44 362 -363 363
-362 150 150 150 150 -1887 1887 c-1039 1039 -1890 1888 -1893 1888 -3 0 -72
-66 -153 -148z m1088 -1426 c-8 -18 -24 -70 -36 -116 -32 -120 -32 -348 -1
-464 48 -176 118 -300 242 -430 178 -186 386 -282 640 -293 141 -6 229 5 351
43 l82 26 98 -98 c55 -54 99 -102 99 -105 0 -4 -39 -16 -87 -28 -297 -68 -629
-74 -913 -15 -598 125 -1102 491 -1401 1017 l-62 110 34 66 c112 217 291 438
498 613 l94 80 188 -188 187 -187 -13 -31z m909 -878 c-7 -12 -96 0 -174 22
-204 59 -370 276 -370 485 l0 50 274 -274 c151 -151 273 -279 270 -283z"/>
<path d="M2430 4264 c-157 -13 -278 -29 -379 -50 -129 -27 -261 -64 -261 -73
0 -3 78 -83 173 -177 l172 -172 110 21 c152 28 471 30 630 4 452 -74 820 -257
1139 -567 160 -156 283 -316 386 -504 l43 -78 -38 -72 c-95 -178 -256 -390
-401 -525 l-78 -72 152 -152 152 -152 123 126 c209 213 380 459 498 717 l57
125 -30 71 c-72 175 -209 406 -339 571 -77 97 -268 295 -361 372 -371 309
-819 507 -1288 567 -118 15 -380 27 -460 20z"/>
<path d="M2480 3623 c-61 -6 -140 -24 -140 -31 0 -4 98 -104 218 -223 149
-148 233 -225 269 -244 64 -34 159 -131 201 -205 21 -36 104 -127 245 -269
241 -240 217 -232 237 -81 37 273 -67 568 -274 776 -196 197 -491 305 -756
277z"/>
</g>
</svg>
